<svg fill="currentColor" width="827.735"  height="71.973" viewBox="0 0 827.735 71.973" xmlns="http://www.w3.org/2000/svg">
    <path stroke="none" fill="currentColor" d="M 265.723 0.977 L 247.217 70.996 L 243.946 70.996 L 230.323 18.311 L 230.127 15.577 L 229.834 18.311 L 216.309 70.996 L 213.037 70.996 L 194.434 0.977 L 200.733 0.977 L 214.453 54.2 L 214.649 56.788 L 214.844 54.2 L 228.321 0.977 L 231.836 0.977 L 245.313 54.2 L 245.508 56.788 L 245.752 54.2 L 259.424 0.977 L 265.723 0.977 Z M 537.549 70.996 L 534.229 70.996 L 505.03 20.02 L 504.444 16.993 L 504.444 70.996 L 498.145 70.996 L 498.145 0.977 L 501.416 0.977 L 530.616 52.002 L 531.25 54.981 L 531.25 0.977 L 537.549 0.977 L 537.549 70.996 Z M 668.701 70.996 L 665.381 70.996 L 636.182 20.02 L 635.596 16.993 L 635.596 70.996 L 629.297 70.996 L 629.297 0.977 L 632.569 0.977 L 661.768 52.002 L 662.403 54.981 L 662.403 0.977 L 668.701 0.977 L 668.701 70.996 Z M 591.944 34.18 L 591.944 70.996 L 589.942 70.996 L 586.28 65.381 A 17.316 17.316 0 0 1 580.713 70.191 A 14.771 14.771 0 0 1 574.182 71.957 A 17.545 17.545 0 0 1 573.438 71.973 L 569.776 71.973 Q 566.211 71.973 563.062 70.63 Q 559.912 69.288 557.569 66.944 A 17.327 17.327 0 0 1 553.882 61.475 Q 552.539 58.35 552.539 54.786 L 552.539 17.188 Q 552.539 13.623 553.882 10.498 A 17.327 17.327 0 0 1 557.569 5.03 Q 559.912 2.686 563.062 1.343 Q 566.211 0 569.776 0 L 574.756 0 Q 578.321 0 581.446 1.343 A 17.327 17.327 0 0 1 586.914 5.03 Q 589.258 7.373 590.601 10.498 Q 591.944 13.623 591.944 17.188 L 591.944 20.02 L 585.645 20.996 L 585.645 17.188 A 11.002 11.002 0 0 0 585.019 13.459 A 10.417 10.417 0 0 0 584.766 12.818 A 11.329 11.329 0 0 0 582.373 9.278 A 11.329 11.329 0 0 0 578.833 6.885 A 10.808 10.808 0 0 0 574.682 6.008 A 12.383 12.383 0 0 0 574.463 6.006 L 570.069 6.006 A 11.002 11.002 0 0 0 566.34 6.632 A 10.417 10.417 0 0 0 565.699 6.885 A 11.63 11.63 0 0 0 562.134 9.278 Q 560.596 10.791 559.717 12.818 A 10.808 10.808 0 0 0 558.84 16.969 A 12.383 12.383 0 0 0 558.838 17.188 L 558.838 54.786 A 11.002 11.002 0 0 0 559.464 58.515 A 10.417 10.417 0 0 0 559.717 59.156 A 11.417 11.417 0 0 0 562.134 62.72 Q 563.672 64.258 565.699 65.137 A 10.808 10.808 0 0 0 569.85 66.014 A 12.383 12.383 0 0 0 570.069 66.016 L 574.463 66.016 A 11.002 11.002 0 0 0 578.192 65.39 A 10.417 10.417 0 0 0 578.833 65.137 A 11.126 11.126 0 0 0 582.373 62.72 A 11.63 11.63 0 0 0 584.766 59.156 A 10.808 10.808 0 0 0 585.643 55.005 A 12.383 12.383 0 0 0 585.645 54.786 L 585.645 40.186 L 574.463 40.186 L 574.463 34.18 L 591.944 34.18 Z M 411.719 70.996 L 372.315 70.996 L 372.315 0.977 L 411.719 0.977 L 411.719 6.983 L 378.614 6.983 L 378.614 33.008 L 405.42 33.008 L 405.42 39.014 L 378.614 39.014 L 378.614 64.991 L 411.719 64.991 L 411.719 70.996 Z M 486.133 70.996 L 446.729 70.996 L 446.729 0.977 L 486.133 0.977 L 486.133 6.983 L 453.028 6.983 L 453.028 33.008 L 479.834 33.008 L 479.834 39.014 L 453.028 39.014 L 453.028 64.991 L 486.133 64.991 L 486.133 70.996 Z M 724.121 70.996 L 684.717 70.996 L 684.717 0.977 L 724.121 0.977 L 724.121 6.983 L 691.016 6.983 L 691.016 33.008 L 717.823 33.008 L 717.823 39.014 L 691.016 39.014 L 691.016 64.991 L 724.121 64.991 L 724.121 70.996 Z M 775.537 70.996 L 736.133 70.996 L 736.133 0.977 L 775.537 0.977 L 775.537 6.983 L 742.432 6.983 L 742.432 33.008 L 769.239 33.008 L 769.239 39.014 L 742.432 39.014 L 742.432 64.991 L 775.537 64.991 L 775.537 70.996 Z M 40.381 52.686 L 40.381 54.786 Q 40.381 58.35 38.941 61.475 A 18.094 18.094 0 0 1 35.083 66.944 A 17.984 17.984 0 0 1 29.468 70.63 Q 26.27 71.973 22.705 71.973 L 17.676 71.973 Q 14.112 71.973 10.913 70.63 A 17.984 17.984 0 0 1 5.298 66.944 A 18.094 18.094 0 0 1 1.441 61.475 A 15.787 15.787 0 0 1 0 54.786 L 0 52.002 L 6.299 50.977 L 6.299 54.786 A 10.147 10.147 0 0 0 7.251 59.156 A 11.853 11.853 0 0 0 9.815 62.72 Q 11.426 64.258 13.55 65.137 Q 15.674 66.016 18.018 66.016 L 22.412 66.016 Q 24.756 66.016 26.856 65.137 A 12.078 12.078 0 0 0 30.567 62.72 A 11.853 11.853 0 0 0 33.13 59.156 A 10.147 10.147 0 0 0 34.082 54.786 L 34.082 52.686 Q 34.082 49.073 32.666 46.68 Q 31.25 44.288 28.907 42.603 A 23.642 23.642 0 0 0 25.048 40.364 A 27.561 27.561 0 0 0 23.609 39.746 Q 20.655 38.575 17.53 37.403 Q 14.405 36.231 11.451 34.815 A 21.994 21.994 0 0 1 6.153 31.275 A 15.704 15.704 0 0 1 2.667 26.643 A 18.129 18.129 0 0 1 2.393 26.075 Q 1.165 23.407 1.002 19.675 A 26.768 26.768 0 0 1 0.977 18.506 L 0.977 17.188 Q 0.977 13.623 2.32 10.498 A 17.327 17.327 0 0 1 6.006 5.03 Q 8.35 2.686 11.499 1.343 Q 14.649 0 18.213 0 L 22.705 0 Q 26.27 0 29.395 1.343 A 17.327 17.327 0 0 1 34.864 5.03 Q 37.207 7.373 38.55 10.498 Q 39.893 13.623 39.893 17.188 L 39.893 18.995 L 33.594 20.02 L 33.594 17.188 A 11.002 11.002 0 0 0 32.968 13.459 A 10.417 10.417 0 0 0 32.715 12.818 A 11.329 11.329 0 0 0 30.323 9.278 A 11.329 11.329 0 0 0 26.783 6.885 A 10.808 10.808 0 0 0 22.631 6.008 A 12.383 12.383 0 0 0 22.412 6.006 L 18.506 6.006 A 11.002 11.002 0 0 0 14.777 6.632 A 10.417 10.417 0 0 0 14.136 6.885 A 11.63 11.63 0 0 0 10.572 9.278 Q 9.034 10.791 8.155 12.818 A 10.808 10.808 0 0 0 7.278 16.969 A 12.383 12.383 0 0 0 7.276 17.188 L 7.276 18.506 A 13.298 13.298 0 0 0 7.509 21.066 Q 7.851 22.808 8.692 24.17 A 13.225 13.225 0 0 0 12.288 27.985 A 15.139 15.139 0 0 0 12.451 28.101 Q 14.795 29.737 17.749 30.933 A 1166.589 1166.589 0 0 0 23.78 33.355 A 1574.5 1574.5 0 0 0 23.828 33.374 A 75.921 75.921 0 0 1 29.908 36.109 A 22.918 22.918 0 0 1 35.205 39.771 A 16.103 16.103 0 0 1 38.68 44.467 A 18.635 18.635 0 0 1 38.965 45.069 A 14.94 14.94 0 0 1 40.005 48.417 Q 40.381 50.37 40.381 52.686 Z M 360.303 70.996 L 353.028 70.996 L 334.034 41.114 L 325.391 41.114 L 325.391 70.996 L 319.092 70.996 L 319.092 0.977 L 341.309 0.977 Q 344.873 0.977 347.998 2.32 A 17.327 17.327 0 0 1 353.467 6.006 Q 355.811 8.35 357.154 11.499 Q 358.496 14.649 358.496 18.213 L 358.496 23.877 Q 358.496 27.442 357.154 30.591 Q 355.811 33.741 353.467 36.084 A 17.327 17.327 0 0 1 347.998 39.771 Q 344.873 41.114 341.309 41.114 L 360.303 70.996 Z M 827.735 70.996 L 820.459 70.996 L 801.465 41.114 L 792.823 41.114 L 792.823 70.996 L 786.524 70.996 L 786.524 0.977 L 808.741 0.977 Q 812.305 0.977 815.43 2.32 A 17.327 17.327 0 0 1 820.899 6.006 Q 823.243 8.35 824.585 11.499 Q 825.928 14.649 825.928 18.213 L 825.928 23.877 Q 825.928 27.442 824.585 30.591 Q 823.243 33.741 820.899 36.084 A 17.327 17.327 0 0 1 815.43 39.771 Q 812.305 41.114 808.741 41.114 L 827.735 70.996 Z M 146.729 6.983 L 113.623 6.983 L 113.623 33.008 L 140.43 33.008 L 140.43 39.014 L 113.623 39.014 L 113.623 70.996 L 107.325 70.996 L 107.325 0.977 L 146.729 0.977 L 146.729 6.983 Z M 190.43 6.983 L 173.731 6.983 L 173.731 70.996 L 167.432 70.996 L 167.432 6.983 L 150.733 6.983 L 150.733 0.977 L 190.43 0.977 L 190.43 6.983 Z M 304.639 70.996 L 300 54.688 L 277.832 54.688 L 273.243 70.996 L 266.7 70.996 L 287.207 0.977 L 290.528 0.977 L 311.133 70.996 L 304.639 70.996 Z M 75.098 71.973 L 70.118 71.973 Q 66.553 71.973 63.404 70.63 Q 60.254 69.288 57.91 66.944 A 17.327 17.327 0 0 1 54.224 61.475 Q 52.881 58.35 52.881 54.786 L 52.881 17.188 Q 52.881 13.623 54.224 10.498 A 17.327 17.327 0 0 1 57.91 5.03 Q 60.254 2.686 63.404 1.343 Q 66.553 0 70.118 0 L 75.098 0 Q 78.662 0 81.787 1.343 A 17.327 17.327 0 0 1 87.256 5.03 Q 89.6 7.373 90.943 10.498 Q 92.285 13.623 92.285 17.188 L 92.285 54.786 Q 92.285 58.35 90.943 61.475 A 17.327 17.327 0 0 1 87.256 66.944 A 17.327 17.327 0 0 1 81.787 70.63 Q 78.662 71.973 75.098 71.973 Z M 85.987 54.786 L 85.987 17.188 A 11.002 11.002 0 0 0 85.361 13.459 A 10.417 10.417 0 0 0 85.108 12.818 A 11.329 11.329 0 0 0 82.715 9.278 A 11.329 11.329 0 0 0 79.175 6.885 A 10.808 10.808 0 0 0 75.024 6.008 A 12.383 12.383 0 0 0 74.805 6.006 L 70.41 6.006 A 11.002 11.002 0 0 0 66.681 6.632 A 10.417 10.417 0 0 0 66.04 6.885 A 11.63 11.63 0 0 0 62.476 9.278 Q 60.938 10.791 60.059 12.818 A 10.808 10.808 0 0 0 59.182 16.969 A 12.383 12.383 0 0 0 59.18 17.188 L 59.18 54.786 A 11.002 11.002 0 0 0 59.806 58.515 A 10.417 10.417 0 0 0 60.059 59.156 A 11.417 11.417 0 0 0 62.476 62.72 Q 64.014 64.258 66.04 65.137 A 10.808 10.808 0 0 0 70.191 66.014 A 12.383 12.383 0 0 0 70.41 66.016 L 74.805 66.016 A 11.002 11.002 0 0 0 78.534 65.39 A 10.417 10.417 0 0 0 79.175 65.137 A 11.126 11.126 0 0 0 82.715 62.72 A 11.63 11.63 0 0 0 85.108 59.156 A 10.808 10.808 0 0 0 85.985 55.005 A 12.383 12.383 0 0 0 85.987 54.786 Z M 613.282 70.996 L 606.983 70.996 L 606.983 0.977 L 613.282 0.977 L 613.282 70.996 Z M 352.198 23.877 L 352.198 18.213 A 11.002 11.002 0 0 0 351.572 14.484 A 10.417 10.417 0 0 0 351.319 13.843 A 11.63 11.63 0 0 0 348.926 10.279 Q 347.412 8.741 345.386 7.862 A 10.808 10.808 0 0 0 341.235 6.985 A 12.383 12.383 0 0 0 341.016 6.983 L 325.391 6.983 L 325.391 35.108 L 341.016 35.108 A 11.002 11.002 0 0 0 344.745 34.482 A 10.417 10.417 0 0 0 345.386 34.229 A 11.126 11.126 0 0 0 348.926 31.812 A 11.63 11.63 0 0 0 351.319 28.247 A 10.808 10.808 0 0 0 352.196 24.096 A 12.383 12.383 0 0 0 352.198 23.877 Z M 819.629 23.877 L 819.629 18.213 A 11.002 11.002 0 0 0 819.004 14.484 A 10.417 10.417 0 0 0 818.75 13.843 A 11.63 11.63 0 0 0 816.358 10.279 Q 814.844 8.741 812.818 7.862 A 10.808 10.808 0 0 0 808.667 6.985 A 12.383 12.383 0 0 0 808.448 6.983 L 792.823 6.983 L 792.823 35.108 L 808.448 35.108 A 11.002 11.002 0 0 0 812.177 34.482 A 10.417 10.417 0 0 0 812.818 34.229 A 11.126 11.126 0 0 0 816.358 31.812 A 11.63 11.63 0 0 0 818.75 28.247 A 10.808 10.808 0 0 0 819.627 24.096 A 12.383 12.383 0 0 0 819.629 23.877 Z M 288.721 16.407 L 279.541 48.682 L 298.34 48.682 L 289.112 16.407 L 288.916 13.819 L 288.721 16.407 Z" vector-effect="non-scaling-stroke"/>
</svg>