<svg fill="currentColor" width="397.9" height="70" viewBox="0 0 397.9 70" xmlns="http://www.w3.org/2000/svg">
    <path stroke="none" fill="currentColor" d="M 363.4 70 L 363.4 0 L 377.2 0 L 387.9 41.9 L 388.1 41.9 L 388.1 0 L 397.9 0 L 397.9 70 L 386.6 70 L 373.4 18.9 L 373.2 18.9 L 373.2 70 L 363.4 70 Z M 117.8 70 L 117.8 0 L 147.8 0 L 147.8 10 L 128.8 10 L 128.8 28.5 L 143.9 28.5 L 143.9 38.5 L 128.8 38.5 L 128.8 60 L 147.8 60 L 147.8 70 L 117.8 70 Z M 154.1 70 L 154.1 0 L 170.4 0 A 29.066 29.066 0 0 1 174.817 0.313 Q 177.144 0.672 178.991 1.442 A 11.489 11.489 0 0 1 182.8 3.95 Q 186.7 7.9 186.7 16.1 L 186.7 20.4 A 25.259 25.259 0 0 1 186.278 25.211 Q 185.763 27.857 184.62 29.806 A 10.176 10.176 0 0 1 179.5 34.2 L 179.5 34.4 A 9.225 9.225 0 0 1 182.734 36.075 A 8.631 8.631 0 0 1 185.15 39.3 A 16.431 16.431 0 0 1 186.155 42.427 Q 186.8 45.325 186.8 49.2 L 186.8 61.5 Q 186.8 64.434 186.991 66.268 A 21.93 21.93 0 0 0 187 66.35 A 12.134 12.134 0 0 0 187.951 69.888 A 13.583 13.583 0 0 0 188 70 L 176.8 70 A 18.152 18.152 0 0 1 176.275 68.251 A 13.945 13.945 0 0 1 176 66.8 A 14.955 14.955 0 0 1 175.914 65.917 Q 175.805 64.413 175.8 61.666 A 147.151 147.151 0 0 1 175.8 61.4 L 175.8 48.6 Q 175.8 43.8 174.25 41.9 A 4.556 4.556 0 0 0 172.383 40.569 Q 171.615 40.258 170.645 40.117 A 12.174 12.174 0 0 0 168.9 40 L 165.1 40 L 165.1 70 L 154.1 70 Z M 283 70 L 283 0 L 299.3 0 A 29.066 29.066 0 0 1 303.717 0.313 Q 306.044 0.672 307.891 1.442 A 11.489 11.489 0 0 1 311.7 3.95 Q 315.6 7.9 315.6 16.1 L 315.6 20.4 A 25.259 25.259 0 0 1 315.178 25.211 Q 314.663 27.857 313.52 29.806 A 10.176 10.176 0 0 1 308.4 34.2 L 308.4 34.4 A 9.225 9.225 0 0 1 311.634 36.075 A 8.631 8.631 0 0 1 314.05 39.3 A 16.431 16.431 0 0 1 315.055 42.427 Q 315.7 45.325 315.7 49.2 L 315.7 61.5 Q 315.7 64.434 315.891 66.268 A 21.93 21.93 0 0 0 315.9 66.35 A 12.134 12.134 0 0 0 316.851 69.888 A 13.583 13.583 0 0 0 316.9 70 L 305.7 70 A 18.152 18.152 0 0 1 305.175 68.251 A 13.945 13.945 0 0 1 304.9 66.8 A 14.955 14.955 0 0 1 304.814 65.917 Q 304.705 64.413 304.7 61.666 A 147.151 147.151 0 0 1 304.7 61.4 L 304.7 48.6 Q 304.7 43.8 303.15 41.9 A 4.556 4.556 0 0 0 301.283 40.569 Q 300.515 40.258 299.545 40.117 A 12.174 12.174 0 0 0 297.8 40 L 294 40 L 294 70 L 283 70 Z M 0 70 L 11.4 0 L 26.3 0 L 37.7 70 L 26.7 70 L 24.7 56.1 L 24.7 56.3 L 12.2 56.3 L 10.2 70 L 0 70 Z M 320.4 70 L 331.8 0 L 346.7 0 L 358.1 70 L 347.1 70 L 345.1 56.1 L 345.1 56.3 L 332.6 56.3 L 330.6 70 L 320.4 70 Z M 202.8 70 L 202.8 10 L 191.3 10 L 191.3 0 L 225.3 0 L 225.3 10 L 213.8 10 L 213.8 70 L 202.8 70 Z M 255.2 70 L 255.2 10 L 243.7 10 L 243.7 0 L 277.7 0 L 277.7 10 L 266.2 10 L 266.2 70 L 255.2 70 Z M 77.4 70 L 77.4 0 L 94 0 A 29.066 29.066 0 0 1 98.417 0.313 Q 100.744 0.672 102.591 1.442 A 11.489 11.489 0 0 1 106.4 3.95 Q 110.3 7.9 110.3 16.1 L 110.3 18.9 A 27.503 27.503 0 0 1 110.093 22.377 Q 109.859 24.213 109.359 25.745 A 13.238 13.238 0 0 1 108.55 27.7 Q 106.8 31.1 103.2 32.6 L 103.2 32.8 A 11.171 11.171 0 0 1 110.538 40.695 Q 111.185 42.855 111.346 45.547 A 30.947 30.947 0 0 1 111.4 47.4 L 111.4 53.4 Q 111.4 59.264 109.173 63.11 A 12.751 12.751 0 0 1 107.15 65.75 A 13.54 13.54 0 0 1 101.52 69.067 Q 99.381 69.738 96.793 69.927 A 28.779 28.779 0 0 1 94.7 70 L 77.4 70 Z M 43 70 L 43 0 L 54 0 L 54 60 L 72.1 60 L 72.1 70 L 43 70 Z M 13.5 46.8 L 23.4 46.8 L 18.5 12.2 L 18.3 12.2 L 13.5 46.8 Z M 333.9 46.8 L 343.8 46.8 L 338.9 12.2 L 338.7 12.2 L 333.9 46.8 Z M 88.4 60 L 94.7 60 A 8.64 8.64 0 0 0 96.29 59.864 Q 98.016 59.54 99 58.45 A 4.349 4.349 0 0 0 99.797 57.119 Q 100.305 55.835 100.385 53.865 A 18.793 18.793 0 0 0 100.4 53.1 L 100.4 47 Q 100.4 42.2 98.75 40.35 Q 97.495 38.943 94.995 38.606 A 12.724 12.724 0 0 0 93.3 38.5 L 88.4 38.5 L 88.4 60 Z M 165.1 30 L 169.1 30 Q 172.4 30 174.05 28.3 Q 175.7 26.6 175.7 22.6 L 175.7 17.2 Q 175.7 13.816 174.629 12.097 A 4.26 4.26 0 0 0 174.35 11.7 A 4.239 4.239 0 0 0 172.2 10.281 Q 171.48 10.062 170.603 10.014 A 9.216 9.216 0 0 0 170.1 10 L 165.1 10 L 165.1 30 Z M 294 30 L 298 30 Q 301.3 30 302.95 28.3 Q 304.6 26.6 304.6 22.6 L 304.6 17.2 Q 304.6 13.816 303.529 12.097 A 4.26 4.26 0 0 0 303.25 11.7 A 4.239 4.239 0 0 0 301.1 10.281 Q 300.38 10.062 299.503 10.014 A 9.216 9.216 0 0 0 299 10 L 294 10 L 294 30 Z M 88.4 28.5 L 92.7 28.5 Q 96 28.5 97.65 26.8 Q 99.3 25.1 99.3 21.1 L 99.3 17.2 Q 99.3 13.816 98.229 12.097 A 4.26 4.26 0 0 0 97.95 11.7 A 4.239 4.239 0 0 0 95.8 10.281 Q 95.08 10.062 94.203 10.014 A 9.216 9.216 0 0 0 93.7 10 L 88.4 10 L 88.4 28.5 Z" vector-effect="non-scaling-stroke"/>
</svg>